<?xml version="1.0" encoding="UTF-8" standalone="no"?>
<!-- Created with Inkscape (http://www.inkscape.org/) -->

<svg
   version="1.1"
   id="svg1379"
   width="1600"
   height="1600"
   viewBox="0 0 1600 1600"
   sodipodi:docname="folders-in-hierarchy-pdv.svg"
   inkscape:version="1.2 (dc2aedaf03, 2022-05-15)"
   xmlns:inkscape="http://www.inkscape.org/namespaces/inkscape"
   xmlns:sodipodi="http://sodipodi.sourceforge.net/DTD/sodipodi-0.dtd"
   xmlns="http://www.w3.org/2000/svg"
   xmlns:svg="http://www.w3.org/2000/svg">
  <defs
     id="defs1383">
    <clipPath
       clipPathUnits="userSpaceOnUse"
       id="clipPath1475">
      <path
         d="M 0,1200 H 1200 V 0 H 0 Z"
         id="path1473" />
    </clipPath>
  </defs>
  <sodipodi:namedview
     id="namedview1381"
     pagecolor="#ffffff"
     bordercolor="#000000"
     borderopacity="0.25"
     inkscape:showpageshadow="2"
     inkscape:pageopacity="0.0"
     inkscape:pagecheckerboard="0"
     inkscape:deskcolor="#d1d1d1"
     showgrid="false"
     inkscape:zoom="0.523125"
     inkscape:cx="800"
     inkscape:cy="800.95579"
     inkscape:window-width="1920"
     inkscape:window-height="1017"
     inkscape:window-x="-8"
     inkscape:window-y="-8"
     inkscape:window-maximized="1"
     inkscape:current-layer="g1387">
    <inkscape:page
       x="0"
       y="0"
       id="page1385"
       width="1600"
       height="1600" />
  </sodipodi:namedview>
  <g
     id="g1387"
     inkscape:groupmode="layer"
     inkscape:label="Page 1"
     transform="matrix(1.3333333,0,0,-1.3333333,0,1600)">
    <path
       d="m 723.28,572.626 h 292.439 V 718.492 H 723.28 Z"
       style="fill:#ffbb00;fill-opacity:1;fill-rule:evenodd;stroke:none"
       id="path1389" />
    <g
       id="g1391"
       transform="translate(810.5684,718.4922)">
      <path
         d="M 0,0 H 205.15 V -44.864 H 38.849 Z"
         style="fill:#e39400;fill-opacity:1;fill-rule:evenodd;stroke:none"
         id="path1393" />
    </g>
    <g
       id="g1395"
       transform="translate(723.2822,718.4922)">
      <path
         d="m 0,0 19.755,-124.168 272.682,-21.701 H 0 Z"
         style="fill:#f5ac00;fill-opacity:1;fill-rule:evenodd;stroke:none"
         id="path1397" />
    </g>
    <g
       id="g1399"
       transform="translate(810.5684,718.4922)">
      <path
         d="m 0,0 41.77,-36.957 163.38,-7.907 H 38.849 Z"
         style="fill:#d98d00;fill-opacity:1;fill-rule:evenodd;stroke:none"
         id="path1401" />
    </g>
    <g
       id="g1403"
       transform="translate(810.5684,718.4922)">
      <path
         d="m 0,0 36.093,-52.012 169.057,7.148 H 38.849 Z"
         style="fill:#ffcc00;fill-opacity:1;fill-rule:evenodd;stroke:none"
         id="path1405" />
    </g>
    <path
       d="m 723.28,382.094 h 292.439 V 527.96 H 723.28 Z"
       style="fill:#ffbb00;fill-opacity:1;fill-rule:evenodd;stroke:none"
       id="path1407" />
    <g
       id="g1409"
       transform="translate(810.5684,527.96)">
      <path
         d="M 0,0 H 205.15 V -44.864 H 38.849 Z"
         style="fill:#e39400;fill-opacity:1;fill-rule:evenodd;stroke:none"
         id="path1411" />
    </g>
    <g
       id="g1413"
       transform="translate(723.2822,527.96)">
      <path
         d="m 0,0 19.755,-124.168 272.682,-21.701 H 0 Z"
         style="fill:#f5ac00;fill-opacity:1;fill-rule:evenodd;stroke:none"
         id="path1415" />
    </g>
    <g
       id="g1417"
       transform="translate(810.5684,527.96)">
      <path
         d="m 0,0 41.77,-36.957 163.38,-7.907 H 38.849 Z"
         style="fill:#d98d00;fill-opacity:1;fill-rule:evenodd;stroke:none"
         id="path1419" />
    </g>
    <g
       id="g1421"
       transform="translate(825.583,510.6221)">
      <path
         d="M 0,0 H 159.913 V -27.526 H 23.834 Z"
         style="fill:#fffce5;fill-opacity:1;fill-rule:evenodd;stroke:none"
         id="path1423" />
    </g>
    <g
       id="g1425"
       transform="translate(810.5684,527.96)">
      <path
         d="m 0,0 36.093,-52.012 169.057,7.148 H 38.849 Z"
         style="fill:#ffcc00;fill-opacity:1;fill-rule:evenodd;stroke:none"
         id="path1427" />
    </g>
    <path
       d="M 510.042,756.247 H 802.48 V 902.113 H 510.042 Z"
       style="fill:#ffbb00;fill-opacity:1;fill-rule:evenodd;stroke:none"
       id="path1429" />
    <g
       id="g1431"
       transform="translate(597.3301,902.1133)">
      <path
         d="M 0,0 H 205.15 V -44.861 H 38.849 Z"
         style="fill:#e39400;fill-opacity:1;fill-rule:evenodd;stroke:none"
         id="path1433" />
    </g>
    <g
       id="g1435"
       transform="translate(510.042,902.1133)">
      <path
         d="m 0,0 19.757,-124.168 272.681,-21.7 H 0 Z"
         style="fill:#f5ac00;fill-opacity:1;fill-rule:evenodd;stroke:none"
         id="path1437" />
    </g>
    <g
       id="g1439"
       transform="translate(597.3301,902.1133)">
      <path
         d="m 0,0 41.77,-36.956 163.38,-7.905 H 38.849 Z"
         style="fill:#d98d00;fill-opacity:1;fill-rule:evenodd;stroke:none"
         id="path1441" />
    </g>
    <g
       id="g1443"
       transform="translate(597.3301,902.1133)">
      <path
         d="m 0,0 36.093,-52.011 169.057,7.15 H 38.849 Z"
         style="fill:#ffcc00;fill-opacity:1;fill-rule:evenodd;stroke:none"
         id="path1445" />
    </g>
    <path
       d="m 298.775,939.869 h 292.441 v 145.866 H 298.775 Z"
       style="fill:#ffbb00;fill-opacity:1;fill-rule:evenodd;stroke:none"
       id="path1447" />
    <g
       id="g1449"
       transform="translate(386.0664,1085.7339)">
      <path
         d="M 0,0 H 205.15 V -44.86 H 38.847 Z"
         style="fill:#e39400;fill-opacity:1;fill-rule:evenodd;stroke:none"
         id="path1451" />
    </g>
    <g
       id="g1453"
       transform="translate(298.7783,1085.7339)">
      <path
         d="m 0,0 19.754,-124.167 272.685,-21.698 H 0 Z"
         style="fill:#f5ac00;fill-opacity:1;fill-rule:evenodd;stroke:none"
         id="path1455" />
    </g>
    <g
       id="g1457"
       transform="translate(386.0664,1085.7339)">
      <path
         d="M 0,0 41.767,-36.955 205.15,-44.86 H 38.847 Z"
         style="fill:#d98d00;fill-opacity:1;fill-rule:evenodd;stroke:none"
         id="path1459" />
    </g>
    <g
       id="g1461"
       transform="translate(612.3447,884.7754)">
      <path
         d="M 0,0 H 159.913 V -27.523 H 23.834 Z"
         style="fill:#fffce5;fill-opacity:1;fill-rule:evenodd;stroke:none"
         id="path1463" />
    </g>
    <g
       id="g1465"
       transform="translate(386.0664,1085.7339)">
      <path
         d="m 0,0 36.093,-52.01 169.057,7.15 H 38.847 Z"
         style="fill:#ffcc00;fill-opacity:1;fill-rule:evenodd;stroke:none"
         id="path1467" />
    </g>
    <g
       id="g1469">
      <g
         id="g1471"
         clip-path="url(#clipPath1475)">
        <g
           id="g1477"
           transform="translate(556.8857,756.2451)">
          <path
             d="m 0,0 v -196.741 c 0,-25.683 10.482,-49.003 27.382,-65.906 16.903,-16.902 40.224,-27.38 65.907,-27.38 h 73.107 v -22.388 H 93.289 c -31.861,0 -60.783,12.991 -81.735,33.94 -20.948,20.953 -33.942,49.873 -33.942,81.734 l 0,196.741 z"
             style="fill:#ba7900;fill-opacity:1;fill-rule:evenodd;stroke:none"
             id="path1479" />
        </g>
        <g
           id="g1481"
           transform="translate(556.8857,756.2451)">
          <path
             d="m 0,0 v -6.209 c 0,-25.683 10.482,-49.003 27.385,-65.906 16.9,-16.902 40.221,-27.38 65.904,-27.38 h 73.107 v -22.388 H 93.289 c -31.861,0 -60.783,12.991 -81.733,33.942 -20.95,20.952 -33.944,49.874 -33.944,81.732 l 0,6.209 z"
             style="fill:#ba7900;fill-opacity:1;fill-rule:evenodd;stroke:none"
             id="path1483" />
        </g>
        <g
           id="g1485"
           transform="translate(343.6475,939.8691)">
          <path
             d="m 0,0 v -15.96 c 0,-25.682 10.479,-49.006 27.383,-65.906 16.903,-16.905 40.223,-27.383 65.906,-27.383 h 73.106 v -22.387 H 93.289 c -31.86,0 -60.783,12.99 -81.735,33.941 -20.95,20.95 -33.941,49.872 -33.941,81.735 l 0,15.96 z"
             style="fill:#ba7900;fill-opacity:1;fill-rule:evenodd;stroke:none"
             id="path1487" />
        </g>
        <g
           id="g1489"
           transform="translate(343.6475,939.8691)">
          <path
             d="m 0,0 v -581.634 c 0,-25.682 10.479,-49.006 27.382,-65.906 16.904,-16.901 40.224,-27.383 65.907,-27.383 h 73.106 v -22.386 H 93.289 c -31.86,0 -60.783,12.99 -81.735,33.94 -20.95,20.95 -33.941,49.872 -33.941,81.735 l 0,581.634 z"
             style="fill:#ba7900;fill-opacity:1;fill-rule:evenodd;stroke:none"
             id="path1491" />
        </g>
        <g
           id="g1493"
           transform="translate(401.0811,1068.3975)">
          <path
             d="M 0,0 H 159.913 V -27.523 H 23.832 Z"
             style="fill:#fffce5;fill-opacity:1;fill-rule:evenodd;stroke:none"
             id="path1495" />
        </g>
        <path
           d="M 510.042,183.905 H 802.48 V 329.773 H 510.042 Z"
           style="fill:#2da3ca;fill-opacity:1;fill-rule:evenodd;stroke:none"
           id="path1497" />
        <g
           id="g1499"
           transform="translate(597.3301,329.7715)">
          <path
             d="M 0,0 H 205.15 V -44.862 H 38.849 Z"
             style="fill:#137191;fill-opacity:1;fill-rule:evenodd;stroke:none"
             id="path1501" />
        </g>
        <g
           id="g1503"
           transform="translate(510.042,329.7715)">
          <path
             d="m 0,0 19.757,-124.163 272.681,-21.703 H 0 Z"
             style="fill:#1f92b8;fill-opacity:1;fill-rule:evenodd;stroke:none"
             id="path1505" />
        </g>
        <g
           id="g1507"
           transform="translate(597.3301,329.7715)">
          <path
             d="m 0,0 41.77,-36.954 163.38,-7.908 H 38.849 Z"
             style="fill:#0c6380;fill-opacity:1;fill-rule:evenodd;stroke:none"
             id="path1509" />
        </g>
        <g
           id="g1511"
           transform="translate(597.3301,329.7715)">
          <path
             d="m 0,0 36.093,-52.009 169.057,7.147 H 38.849 Z"
             style="fill:#48bae0;fill-opacity:1;fill-rule:evenodd;stroke:none"
             id="path1513" />
        </g>
      </g>
    </g>
  </g>
</svg>
